<svg width="37" height="36" viewBox="0 0 37 36" fill="none" xmlns="http://www.w3.org/2000/svg">
<path d="M31.7384 8.27859C31.6328 8.15222 31.5008 8.05058 31.3516 7.98084C31.2024 7.9111 31.0397 7.87497 30.875 7.875H8.18937L7.50172 4.09781C7.40753 3.57938 7.13438 3.11044 6.72988 2.77276C6.32538 2.43508 5.8152 2.25008 5.28828 2.25H2.75C2.45163 2.25 2.16548 2.36853 1.9545 2.5795C1.74353 2.79048 1.625 3.07663 1.625 3.375C1.625 3.67337 1.74353 3.95952 1.9545 4.1705C2.16548 4.38147 2.45163 4.5 2.75 4.5H5.28125L8.87563 24.2283C8.9815 24.8134 9.24007 25.3601 9.62516 25.8131C9.09366 26.3096 8.71004 26.9435 8.51683 27.6446C8.32362 28.3458 8.32838 29.0867 8.53057 29.7853C8.73276 30.4839 9.12449 31.1129 9.66232 31.6025C10.2001 32.092 10.8631 32.4231 11.5775 32.5589C12.292 32.6947 13.0302 32.63 13.7101 32.3719C14.39 32.1138 14.9852 31.6725 15.4297 31.0968C15.8741 30.5211 16.1504 29.8336 16.2279 29.1104C16.3054 28.3873 16.1812 27.6568 15.8689 27H22.2561C22.0044 27.5269 21.8742 28.1036 21.875 28.6875C21.875 29.4663 22.1059 30.2275 22.5386 30.8751C22.9712 31.5226 23.5862 32.0273 24.3057 32.3253C25.0252 32.6233 25.8169 32.7013 26.5807 32.5493C27.3445 32.3974 28.0461 32.0224 28.5967 31.4717C29.1474 30.9211 29.5224 30.2195 29.6743 29.4557C29.8263 28.6919 29.7483 27.9002 29.4503 27.1807C29.1523 26.4612 28.6476 25.8462 28.0001 25.4136C27.3525 24.9809 26.5913 24.75 25.8125 24.75H12.1958C11.9323 24.75 11.6772 24.6575 11.475 24.4886C11.2727 24.3198 11.1362 24.0853 11.0891 23.8261L10.6433 21.375H26.9558C27.7462 21.3749 28.5114 21.0974 29.1182 20.5909C29.7249 20.0843 30.1347 19.3809 30.2759 18.6033L31.9859 9.20109C32.0149 9.03859 32.0077 8.8717 31.9649 8.71227C31.9222 8.55285 31.8448 8.40479 31.7384 8.27859ZM14 28.6875C14 29.0213 13.901 29.3475 13.7156 29.625C13.5302 29.9025 13.2666 30.1188 12.9583 30.2465C12.6499 30.3743 12.3106 30.4077 11.9833 30.3426C11.6559 30.2775 11.3553 30.1167 11.1193 29.8807C10.8833 29.6447 10.7225 29.3441 10.6574 29.0167C10.5923 28.6894 10.6257 28.3501 10.7535 28.0417C10.8812 27.7334 11.0975 27.4698 11.375 27.2844C11.6525 27.099 11.9787 27 12.3125 27C12.7601 27 13.1893 27.1778 13.5057 27.4943C13.8222 27.8107 14 28.2399 14 28.6875ZM27.5 28.6875C27.5 29.0213 27.401 29.3475 27.2156 29.625C27.0302 29.9025 26.7666 30.1188 26.4583 30.2465C26.1499 30.3743 25.8106 30.4077 25.4833 30.3426C25.1559 30.2775 24.8553 30.1167 24.6193 29.8807C24.3833 29.6447 24.2225 29.3441 24.1574 29.0167C24.0923 28.6894 24.1257 28.3501 24.2535 28.0417C24.3812 27.7334 24.5975 27.4698 24.875 27.2844C25.1525 27.099 25.4787 27 25.8125 27C26.2601 27 26.6893 27.1778 27.0057 27.4943C27.3222 27.8107 27.5 28.2399 27.5 28.6875ZM28.0625 18.2011C28.0153 18.461 27.8781 18.696 27.675 18.865C27.4718 19.0339 27.2157 19.126 26.9516 19.125H10.2341L8.59859 10.125H29.5264L28.0625 18.2011Z" fill="#7F5539"/>
</svg>
