<svg width="29" height="30" viewBox="0 0 29 30" fill="none" xmlns="http://www.w3.org/2000/svg">
<path fill-rule="evenodd" clip-rule="evenodd" d="M14.5166 4.64223L13.0199 2.9242C12.3184 2.10811 11.4831 1.45937 10.5623 1.01532C9.64143 0.571265 8.65315 0.340682 7.65434 0.336841C6.65554 0.333 5.66594 0.555978 4.74252 0.992937C3.8191 1.4299 2.9801 2.0722 2.27383 2.88288C1.56757 3.69355 1.00799 4.65658 0.627303 5.71651C0.246621 6.77644 0.0523604 7.91233 0.0557066 9.05879C0.0590527 10.2053 0.259939 11.3396 0.6468 12.3966C1.03366 13.4536 1.59885 14.4123 2.30984 15.2175L14.4808 29.1877L14.4836 29.1846L14.5194 29.2257L26.6904 15.2554C27.4014 14.4502 27.9666 13.4915 28.3534 12.4345C28.7403 11.3776 28.9412 10.2432 28.9445 9.09672C28.9479 7.95026 28.7536 6.81437 28.3729 5.75444C27.9922 4.69451 27.4326 3.73148 26.7264 2.92081C26.0201 2.11013 25.1811 1.46783 24.2577 1.03087C23.3343 0.593911 22.3447 0.370932 21.3459 0.374773C20.3471 0.378614 19.3588 0.609198 18.4379 1.05325C17.5171 1.4973 16.6819 2.14604 15.9803 2.96213L14.5166 4.64223ZM14.4836 24.7149L21.2803 16.9118L23.2769 14.6991H23.2796L24.7434 13.0206C25.6472 11.9831 26.155 10.576 26.155 9.10879C26.155 7.64158 25.6472 6.23446 24.7434 5.19699C23.8395 4.15952 22.6136 3.57667 21.3354 3.57667C20.0571 3.57667 18.8312 4.15952 17.9274 5.19699L14.518 9.11195L14.5084 9.10088L11.0728 5.16064C10.169 4.12317 8.9431 3.54032 7.66485 3.54032C6.38661 3.54032 5.16072 4.12317 4.25686 5.16064C3.35301 6.19811 2.84523 7.60523 2.84523 9.07243C2.84523 10.5396 3.35301 11.9468 4.25686 12.9842L7.75436 16.9988L7.75573 16.994L14.4836 24.7165V24.7149Z" fill="#BF0000"/>
</svg>
